HIERARCHY
ROOT hip
{
	OFFSET 0.000000 0.000000 0.000000 
	CHANNELS 6 Xposition Yposition Zposition Zrotation Yrotation Xrotation
	JOINT abdomen
	{
		OFFSET 0.000000 20.688101 -0.731520 
		CHANNELS 3 Zrotation Xrotation Yrotation
		JOINT chest
		{
			OFFSET 0.000000 11.704300 -0.487680 
			CHANNELS 3 Zrotation Xrotation Yrotation
			JOINT neck
			{
				OFFSET 0.000000 22.189400 -2.194560 
				CHANNELS 3 Zrotation Xrotation Yrotation
				JOINT head
				{
					OFFSET -0.243840 7.071330 1.219200 
					CHANNELS 3 Zrotation Xrotation Yrotation
					JOINT leftEye
					{
						OFFSET 4.145280 8.046740 8.046720 
						CHANNELS 3 Zrotation Xrotation Yrotation
						End Site
						{
							OFFSET 1.000000 0.000000 0.000000 
						}
					}
					JOINT rightEye
					{
						OFFSET -3.657600 8.046740 8.046720 
						CHANNELS 3 Zrotation Xrotation Yrotation
						End Site
						{
							OFFSET 1.000000 0.000000 0.000000 
						}
					}
				}
			}
			JOINT rCollar
			{
				OFFSET -2.682240 19.263399 -4.876800 
				CHANNELS 3 Zrotation Xrotation Yrotation
				JOINT rShldr
				{
					OFFSET -8.778240 -1.950730 1.463040 
					CHANNELS 3 Zrotation Xrotation Yrotation
					JOINT rForeArm
					{
						OFFSET -28.174200 -1.711500 0.487680 
						CHANNELS 3 Zrotation Xrotation Yrotation
						JOINT rHand
						{
							OFFSET -22.587900 0.773209 7.071360 
							CHANNELS 3 Zrotation Xrotation Yrotation
							JOINT rThumb1
							{
								OFFSET -1.219200 -0.487915 3.413760 
								CHANNELS 3 Zrotation Xrotation Yrotation
								JOINT rThumb2
								{
									OFFSET -3.370350 -0.524490 3.413760 
									CHANNELS 3 Zrotation Xrotation Yrotation
									End Site
									{
										OFFSET -1.782710 -1.182140 1.430490 
									}
								}
							}
							JOINT rIndex1
							{
								OFFSET -7.759470 0.938293 5.608320 
								CHANNELS 3 Zrotation Xrotation Yrotation
								JOINT rIndex2
								{
									OFFSET -2.540570 -0.884171 1.565380 
									CHANNELS 3 Zrotation Xrotation Yrotation
									End Site
									{
										OFFSET -1.625190 -0.234802 1.165020 
									}
								}
							}
							JOINT rMid1
							{
								OFFSET -8.247140 1.182130 3.413760 
								CHANNELS 3 Zrotation Xrotation Yrotation
								JOINT rMid2
								{
									OFFSET -3.101650 -0.590103 1.064700 
									CHANNELS 3 Zrotation Xrotation Yrotation
									End Site
									{
										OFFSET -2.485470 -0.328903 0.837420 
									}
								}
							}
							JOINT rRing1
							{
								OFFSET -8.828220 0.546677 1.516780 
								CHANNELS 3 Zrotation Xrotation Yrotation
								JOINT rRing2
								{
									OFFSET -2.609340 -0.819778 -0.019849 
									CHANNELS 3 Zrotation Xrotation Yrotation
									End Site
									{
										OFFSET -2.338420 -0.294052 0.168128 
									}
								}
							}
							JOINT rPinky1
							{
								OFFSET -8.272020 -0.047791 -0.458400 
								CHANNELS 3 Zrotation Xrotation Yrotation
								JOINT rPinky2
								{
									OFFSET -1.827340 -0.647385 -0.700984 
									CHANNELS 3 Zrotation Xrotation Yrotation
									End Site
									{
										OFFSET -1.692250 -0.517670 -0.607171 
									}
								}
							}
						}
					}
				}
			}
			JOINT lCollar
			{
				OFFSET 2.682240 19.263399 -4.876800 
				CHANNELS 3 Zrotation Xrotation Yrotation
				JOINT lShldr
				{
					OFFSET 8.778240 -1.950730 1.463040 
					CHANNELS 3 Zrotation Xrotation Yrotation
					JOINT lForeArm
					{
						OFFSET 28.174200 -1.711500 0.487680 
						CHANNELS 3 Zrotation Xrotation Yrotation
						JOINT lHand
						{
							OFFSET 22.587900 0.773209 7.071360 
							CHANNELS 3 Zrotation Xrotation Yrotation
							JOINT lThumb1
							{
								OFFSET 1.219200 -0.487915 3.413760 
								CHANNELS 3 Zrotation Xrotation Yrotation
								JOINT lThumb2
								{
									OFFSET 3.370350 -0.524490 3.413760 
									CHANNELS 3 Zrotation Xrotation Yrotation
									End Site
									{
										OFFSET 1.782710 -1.182140 1.430490 
									}
								}
							}
							JOINT lIndex1
							{
								OFFSET 7.759470 0.938293 5.608320 
								CHANNELS 3 Zrotation Xrotation Yrotation
								JOINT lIndex2
								{
									OFFSET 2.540570 -0.884171 1.565380 
									CHANNELS 3 Zrotation Xrotation Yrotation
									End Site
									{
										OFFSET 1.625190 -0.234802 1.165020 
									}
								}
							}
							JOINT lMid1
							{
								OFFSET 8.247140 1.182130 3.413760 
								CHANNELS 3 Zrotation Xrotation Yrotation
								JOINT lMid2
								{
									OFFSET 3.101650 -0.590103 1.064700 
									CHANNELS 3 Zrotation Xrotation Yrotation
									End Site
									{
										OFFSET 2.485470 -0.328903 0.837420 
									}
								}
							}
							JOINT lRing1
							{
								OFFSET 8.828220 0.546677 1.516780 
								CHANNELS 3 Zrotation Xrotation Yrotation
								JOINT lRing2
								{
									OFFSET 2.609340 -0.819778 -0.019849 
									CHANNELS 3 Zrotation Xrotation Yrotation
									End Site
									{
										OFFSET 2.338420 -0.294052 0.168128 
									}
								}
							}
							JOINT lPinky1
							{
								OFFSET 8.272020 -0.047791 -0.458400 
								CHANNELS 3 Zrotation Xrotation Yrotation
								JOINT lPinky2
								{
									OFFSET 1.827340 -0.647385 -0.700984 
									CHANNELS 3 Zrotation Xrotation Yrotation
									End Site
									{
										OFFSET 1.692250 -0.517670 -0.607171 
									}
								}
							}
						}
					}
				}
			}
		}
	}
	JOINT rButtock
	{
		OFFSET -8.778240 4.350840 1.219200 
		CHANNELS 3 Zrotation Xrotation Yrotation
		JOINT rThigh
		{
			OFFSET 0.000000 -1.706870 -2.194560 
			CHANNELS 3 Zrotation Xrotation Yrotation
			JOINT rShin
			{
				OFFSET 0.000000 -36.819901 0.731520 
				CHANNELS 3 Zrotation Xrotation Yrotation
				JOINT rFoot
				{
					OFFSET 0.731520 -45.110401 -5.120640 
					CHANNELS 3 Zrotation Xrotation Yrotation
					End Site
					{
						OFFSET -1.122100 -3.699640 12.103000 
					}
				}
			}
		}
	}
	JOINT lButtock
	{
		OFFSET 8.778240 4.350840 1.219200 
		CHANNELS 3 Zrotation Xrotation Yrotation
		JOINT lThigh
		{
			OFFSET 0.000000 -1.706870 -2.194560 
			CHANNELS 3 Zrotation Xrotation Yrotation
			JOINT lShin
			{
				OFFSET 0.000000 -36.819901 0.731520 
				CHANNELS 3 Zrotation Xrotation Yrotation
				JOINT lFoot
				{
					OFFSET -0.731520 -45.110401 -5.120640 
					CHANNELS 3 Zrotation Xrotation Yrotation
					End Site
					{
						OFFSET 1.122100 -3.699640 12.103000 
					}
				}
			}
		}
	}
}
MOTION
Frames: 7
Frame Time: 0.040000
0.000000 0.000000 -190.000000 0.000000 0.000000 0.000000 -4.943800 4.725400 -1.653900 -0.010200 -0.011800 0.049900 -7.790600 2.957700 -3.692600 9.727300 0.243400 5.211400 0.000000 0.000000 0.000000 0.000000 0.000000 0.000000 0.000000 0.000000 0.000000 20.743299 -27.580799 -13.870800 -21.213800 -7.772900 23.066999 0.316500 73.350502 18.708900 0.000000 0.000000 0.000000 0.000000 0.000000 0.000000 0.000000 0.000000 0.000000 0.023500 0.013400 0.013600 0.000000 0.000000 0.000000 0.029900 0.008500 0.015800 0.000000 0.000000 0.000000 0.015400 0.020800 0.035100 0.000000 0.000000 0.000000 0.027600 -0.022200 -0.029300 0.000000 0.000000 0.000000 -24.988199 -17.477200 -17.808701 17.608801 -14.652600 -26.053301 -7.593400 23.047501 -15.029700 0.000000 0.000000 0.000000 0.000000 0.000000 0.000000 0.000000 0.000000 0.000000 -0.013200 0.006100 -0.005200 0.000000 0.000000 0.000000 -0.032800 0.030100 -0.004900 0.000000 0.000000 0.000000 -0.030000 0.004100 -0.032400 0.000000 0.000000 0.000000 -0.003800 -0.018400 0.013800 0.000000 0.000000 0.000000 1.341300 -12.475600 -1.149100 -1.661100 21.638000 -2.598100 -1.937600 -11.723200 -8.371400 0.000000 0.000000 0.000000 1.420100 -8.834900 -17.149599 7.006700 24.992500 -0.803400 3.774100 -11.293700 12.629000 
0.000000 0.000000 -190.000000 0.000000 0.000000 0.000000 0.152900 -0.045700 -0.594100 -0.010200 -0.011800 0.050100 -9.208400 2.970800 -2.636600 9.245700 -1.085200 6.498500 0.000000 0.000000 0.000000 0.000000 0.000000 0.000000 0.000000 0.000000 0.000000 20.044001 -32.320099 -7.298100 -23.724800 -7.434200 22.146900 -0.444500 61.850899 20.365999 0.000000 0.000000 0.000000 0.000000 0.000000 0.000000 0.000000 0.000000 0.000000 0.023600 0.013400 0.013700 0.000000 0.000000 0.000000 0.030000 0.008500 0.015800 0.000000 0.000000 0.000000 0.015400 0.020900 0.035200 0.000000 0.000000 0.000000 0.027700 -0.022300 -0.029400 0.000000 0.000000 0.000000 -19.736300 -21.198000 -21.006599 18.640600 -18.011999 -29.456900 -6.671900 26.064600 -14.402900 0.000000 0.000000 0.000000 0.000000 0.000000 0.000000 0.000000 0.000000 0.000000 -0.013300 0.006100 -0.005200 0.000000 0.000000 0.000000 -0.032900 0.030200 -0.004900 0.000000 0.000000 0.000000 -0.030100 0.004100 -0.032500 0.000000 0.000000 0.000000 -0.003800 -0.018500 0.013800 0.000000 0.000000 0.000000 3.223600 -15.077100 -0.832600 0.433100 27.371700 -2.177600 -2.063200 -11.448100 -8.371400 0.000000 0.000000 0.000000 3.920100 -11.433600 -14.371200 8.491000 27.307301 -1.650600 3.115900 -11.196600 11.255400 
0.000000 0.000000 -190.000000 0.000000 0.000000 0.000000 0.129900 2.758000 -0.312600 -0.010200 -0.011800 0.050100 -8.724300 2.941800 -2.600200 9.706600 -0.991500 6.673700 0.000000 0.000000 0.000000 0.000000 0.000000 0.000000 0.000000 0.000000 0.000000 20.160400 -32.553001 -6.927800 -23.597300 -7.530700 22.095200 -0.390900 62.644001 20.287600 0.000000 0.000000 0.000000 0.000000 0.000000 0.000000 0.000000 0.000000 0.000000 0.023600 0.013400 0.013700 0.000000 0.000000 0.000000 0.030000 0.008500 0.015800 0.000000 0.000000 0.000000 0.015400 0.020900 0.035200 0.000000 0.000000 0.000000 0.027700 -0.022300 -0.029400 0.000000 0.000000 0.000000 -20.807100 -20.794399 -22.220100 18.382401 -17.912001 -29.686001 -6.676800 25.934099 -14.419500 0.000000 0.000000 0.000000 0.000000 0.000000 0.000000 0.000000 0.000000 0.000000 -0.013300 0.006100 -0.005200 0.000000 0.000000 0.000000 -0.032900 0.030200 -0.004900 0.000000 0.000000 0.000000 -0.030100 0.004100 -0.032500 0.000000 0.000000 0.000000 -0.003800 -0.018500 0.013800 0.000000 0.000000 0.000000 3.358600 -14.269600 -0.980000 0.166800 27.636900 -2.112300 -2.064400 -11.500600 -8.371400 0.000000 0.000000 0.000000 3.888600 -8.614800 -12.141500 7.429400 24.918100 -1.468800 3.213100 -11.082100 10.988500 
0.000000 0.000000 -190.000000 0.000000 0.000000 0.000000 0.222300 1.187400 -0.560400 -0.010200 -0.011800 0.050100 -9.238400 2.971300 -2.773500 9.680300 -1.308500 6.299600 0.000000 0.000000 0.000000 0.000000 0.000000 0.000000 0.000000 0.000000 0.000000 20.183701 -35.715099 -9.940100 -23.292200 -7.358200 22.165199 -0.590300 62.134602 20.306499 0.000000 0.000000 0.000000 0.000000 0.000000 0.000000 0.000000 0.000000 0.000000 0.023600 0.013400 0.013700 0.000000 0.000000 0.000000 0.030000 0.008500 0.015800 0.000000 0.000000 0.000000 0.015400 0.020900 0.035200 0.000000 0.000000 0.000000 0.027700 -0.022300 -0.029400 0.000000 0.000000 0.000000 -19.829300 -21.495600 -22.743099 18.377899 -17.306900 -29.056000 -6.743100 26.450399 -14.495100 0.000000 0.000000 0.000000 0.000000 0.000000 0.000000 0.000000 0.000000 0.000000 -0.013300 0.006100 -0.005200 0.000000 0.000000 0.000000 -0.032900 0.030200 -0.004900 0.000000 0.000000 0.000000 -0.030100 0.004100 -0.032500 0.000000 0.000000 0.000000 -0.003800 -0.018500 0.013800 0.000000 0.000000 0.000000 3.248000 -15.287700 -0.678700 0.203400 26.388700 -2.231600 -2.063100 -11.442400 -8.371400 0.000000 0.000000 0.000000 4.456200 -10.858400 -14.943000 8.517200 27.469000 -1.628800 3.153400 -11.190100 11.105600 
0.000000 0.000000 -190.000000 0.000000 0.000000 0.000000 0.222300 1.187400 -0.560400 -0.010200 -0.011800 0.050100 -9.238400 2.971300 -2.773500 9.680300 -1.308500 6.299600 0.000000 0.000000 0.000000 0.000000 0.000000 0.000000 0.000000 0.000000 0.000000 20.183701 -35.715099 -9.940100 -23.292200 -7.358200 22.165199 -0.590300 62.134602 20.306499 0.000000 0.000000 0.000000 0.000000 0.000000 0.000000 0.000000 0.000000 0.000000 0.023600 0.013400 0.013700 0.000000 0.000000 0.000000 0.030000 0.008500 0.015800 0.000000 0.000000 0.000000 0.015400 0.020900 0.035200 0.000000 0.000000 0.000000 0.027700 -0.022300 -0.029400 0.000000 0.000000 0.000000 -19.829300 -21.495600 -22.743099 18.377899 -17.306900 -29.056000 -6.743100 26.450399 -14.495100 0.000000 0.000000 0.000000 0.000000 0.000000 0.000000 0.000000 0.000000 0.000000 -0.013300 0.006100 -0.005200 0.000000 0.000000 0.000000 -0.032900 0.030200 -0.004900 0.000000 0.000000 0.000000 -0.030100 0.004100 -0.032500 0.000000 0.000000 0.000000 -0.003800 -0.018500 0.013800 0.000000 0.000000 0.000000 3.248000 -15.287700 -0.678700 0.203400 26.388700 -2.231600 -2.063100 -11.442400 -8.371400 0.000000 0.000000 0.000000 4.456200 -10.858400 -14.943000 8.517200 27.469000 -1.628800 3.153400 -11.190100 11.105600 
0.000000 0.000000 -190.000000 0.000000 0.000000 0.000000 -4.676000 1.873500 -1.935600 -0.010200 -0.011800 0.049900 -8.771400 2.820200 -2.771200 10.207900 -0.859400 5.838000 0.000000 0.000000 0.000000 0.000000 0.000000 0.000000 0.000000 0.000000 0.000000 18.175501 -30.265600 -18.813299 -20.095600 -9.497200 23.720900 -0.135700 79.147499 20.269400 0.000000 0.000000 0.000000 0.000000 0.000000 0.000000 0.000000 0.000000 0.000000 0.023500 0.013400 0.013600 0.000000 0.000000 0.000000 0.029900 0.008500 0.015800 0.000000 0.000000 0.000000 0.015400 0.020800 0.035100 0.000000 0.000000 0.000000 0.027600 -0.022200 -0.029300 0.000000 0.000000 0.000000 -20.209000 -20.879601 -22.493601 16.646601 -16.884600 -28.528000 -7.612700 27.814100 -15.775900 0.000000 0.000000 0.000000 0.000000 0.000000 0.000000 0.000000 0.000000 0.000000 -0.013200 0.006100 -0.005200 0.000000 0.000000 0.000000 -0.032800 0.030100 -0.004900 0.000000 0.000000 0.000000 -0.030000 0.004100 -0.032400 0.000000 0.000000 0.000000 -0.003800 -0.018400 0.013800 0.000000 0.000000 0.000000 1.131600 -14.484200 -1.064600 -1.313700 20.796499 -2.645800 -1.901600 -12.653900 -8.371400 0.000000 0.000000 0.000000 0.600400 -11.232000 -19.791401 9.226600 32.372898 -1.146900 3.868400 -11.548600 13.308600 
0.000000 0.000000 -190.000000 0.000000 0.000000 0.000000 -4.963800 3.238200 -1.629900 -0.010200 -0.011800 0.049900 -8.029200 2.750400 -2.827200 10.009800 -0.484600 5.902600 0.000000 0.000000 0.000000 0.000000 0.000000 0.000000 0.000000 0.000000 0.000000 18.336300 -30.926201 -18.418600 -19.701099 -9.756600 23.655199 -0.080000 79.661697 20.210199 0.000000 0.000000 0.000000 0.000000 0.000000 0.000000 0.000000 0.000000 0.000000 0.023500 0.013400 0.013600 0.000000 0.000000 0.000000 0.029900 0.008500 0.015800 0.000000 0.000000 0.000000 0.015400 0.020800 0.035100 0.000000 0.000000 0.000000 0.027600 -0.022200 -0.029300 0.000000 0.000000 0.000000 -21.302900 -20.565901 -22.709600 16.648399 -16.765200 -28.764700 -7.617300 27.672501 -15.796700 0.000000 0.000000 0.000000 0.000000 0.000000 0.000000 0.000000 0.000000 0.000000 -0.013200 0.006100 -0.005200 0.000000 0.000000 0.000000 -0.032800 0.030100 -0.004900 0.000000 0.000000 0.000000 -0.030000 0.004100 -0.032400 0.000000 0.000000 0.000000 -0.003800 -0.018400 0.013800 0.000000 0.000000 0.000000 1.377200 -13.520300 -1.216100 -1.547400 21.289900 -2.572100 -1.897100 -12.689900 -8.371400 0.000000 0.000000 0.000000 1.213600 -8.446800 -17.458000 7.320600 24.583401 -0.844000 3.970500 -11.490200 13.261400 
